<?xml version="1.0" encoding="UTF-8"?>
<svg version="1.1" xmlns="http://www.w3.org/2000/svg" width="64" height="60">
<path d="M0 0 C4.20305855 3.20233032 8.24079315 7.23158631 10.625 12 C12.71307 12.61272305 12.71307 12.61272305 15.125 13 C17.59375 13.4375 17.59375 13.4375 19.625 14 C20.86391554 16.47783107 20.70484238 18.07258557 20.66015625 20.83984375 C20.39763087 35.58078943 20.39763087 35.58078943 27.51953125 47.9140625 C28.21433594 48.60242187 28.90914062 49.29078125 29.625 50 C30.97390082 51.65409254 32.31155775 53.3176133 33.625 55 C33.13 55.99 33.13 55.99 32.625 57 C31.95855469 56.855625 31.29210938 56.71125 30.60546875 56.5625 C19.74513937 54.37524485 10.77500602 54.67275202 -0.015625 57.24609375 C-3.45670473 58.01833606 -6.87937419 58.54308444 -10.375 59 C-9.95347656 58.37351563 -9.53195313 57.74703125 -9.09765625 57.1015625 C-8.54980469 56.28429688 -8.00195312 55.46703125 -7.4375 54.625 C-6.61958984 53.40683594 -6.61958984 53.40683594 -5.78515625 52.1640625 C-4.36406121 50.07280816 -4.36406121 50.07280816 -3.375 48 C-4.42300781 48.02320313 -5.47101562 48.04640625 -6.55078125 48.0703125 C-7.92968037 48.08907303 -9.3085872 48.10727293 -10.6875 48.125 C-11.37779297 48.14175781 -12.06808594 48.15851562 -12.77929688 48.17578125 C-16.54635396 48.21217794 -18.15931704 48.14378864 -21.375 46 C-21.640625 44.1171875 -21.640625 44.1171875 -21.625 41.875 C-21.99112799 36.71592375 -24.20227687 34.2908677 -27.78125 30.7265625 C-31.40677018 26.79891564 -30.827906 21.41217634 -30.77734375 16.3671875 C-30.03922182 10.18989527 -27.01667063 6.5458277 -22.65234375 2.33984375 C-16.11289616 -2.64457597 -7.6009607 -2.2521365 0 0 Z M-18.375 16 C-18.375 25.24 -18.375 34.48 -18.375 44 C-15.35609074 45.50945463 -12.24786494 45.30648821 -8.9375 45.375 C-8.25623047 45.41238281 -7.57496094 45.44976562 -6.87304688 45.48828125 C-4.61729363 45.5829581 -4.61729363 45.5829581 -1.375 45 C0.60195005 42.92772558 0.60195005 42.92772558 1.625 40 C2.05941406 38.94425781 2.49382813 37.88851562 2.94140625 36.80078125 C3.35261719 35.64964844 3.76382813 34.49851562 4.1875 33.3125 C4.60128906 32.17425781 5.01507813 31.03601563 5.44140625 29.86328125 C6.83030109 25.32989183 7.69513962 20.6493019 8.625 16 C-0.285 16 -9.195 16 -18.375 16 Z M11.625 16 C12.28190619 19.78239671 13.345131 23.21841526 14.6875 26.8125 C15.04972656 27.78832031 15.41195312 28.76414062 15.78515625 29.76953125 C16.06230469 30.50558594 16.33945312 31.24164063 16.625 32 C16.955 32 17.285 32 17.625 32 C17.65185095 29.52076199 17.67176547 27.0418116 17.6875 24.5625 C17.69587891 23.85544922 17.70425781 23.14839844 17.71289062 22.41992188 C17.72153588 20.61306441 17.67720011 18.80612397 17.625 17 C16.55854885 15.70366379 16.55854885 15.70366379 14.0625 15.9375 C13.258125 15.958125 12.45375 15.97875 11.625 16 Z " fill="#2A2A2A" transform="translate(30.375,1)"/>
<path d="M0 0 C1.32 0 2.64 0 4 0 C4.67305018 1.60149886 5.33822227 3.20631029 6 4.8125 C6.37125 5.70582031 6.7425 6.59914063 7.125 7.51953125 C8 10 8 10 8 13 C8.66 13 9.32 13 10 13 C10.33 15.31 10.66 17.62 11 20 C11.99 20.33 12.98 20.66 14 21 C15.68359375 23.109375 15.68359375 23.109375 17.4375 25.75 C19.83249766 29.29175502 22.25980999 32.71177199 25 36 C24.505 36.99 24.505 36.99 24 38 C23.33355469 37.855625 22.66710938 37.71125 21.98046875 37.5625 C11.12013937 35.37524485 2.15000602 35.67275202 -8.640625 38.24609375 C-12.08170473 39.01833606 -15.50437419 39.54308444 -19 40 C-13.43298969 31.48247423 -13.43298969 31.48247423 -10.8125 28.5625 C-8.08831479 24.71106574 -7.22180652 20.51642907 -6 16 C-5.3229737 13.68441198 -4.63522265 11.37193621 -3.9375 9.0625 C-3.61652344 7.98097656 -3.29554687 6.89945313 -2.96484375 5.78515625 C-2 3 -2 3 0 0 Z " fill="#292929" transform="translate(39,20)"/>
<path d="M0 0 C0 0.99 0 1.98 0 3 C-2 5 -2 5 -5.6953125 5.1953125 C-7.17200108 5.182009 -8.64862358 5.15814835 -10.125 5.125 C-10.87910156 5.11597656 -11.63320313 5.10695313 -12.41015625 5.09765625 C-14.27357254 5.0740687 -16.13682593 5.03819719 -18 5 C-18.33 4.01 -18.66 3.02 -19 2 C-15.39257938 0.79752646 -12.12298119 0.92954923 -8.375 1 C-5.90994869 1.0458188 -3.46654055 1.04709385 -1 1 C-0.67 0.67 -0.34 0.34 0 0 Z " fill="#6C6C6C" transform="translate(30,44)"/>
<path d="M0 0 C0.66 0 1.32 0 2 0 C2 8.25 2 16.5 2 25 C-1.44657826 21.55342174 -0.87290932 16.69657832 -1 12 C-0.80578553 7.98161013 -0.4534083 3.99696854 0 0 Z " fill="#3D3D3D" transform="translate(49,17)"/>
<path d="M0 0 C0.66 0.33 1.32 0.66 2 1 C0.90344712 2.31886772 -0.20253423 3.62990057 -1.3125 4.9375 C-1.92738281 5.66839844 -2.54226562 6.39929688 -3.17578125 7.15234375 C-5 9 -5 9 -8 10 C-6.5682479 4.98886765 -4.01554307 3.05530451 0 0 Z " fill="#353535" transform="translate(10,2)"/>
<path d="M0 0 C0.99 0 1.98 0 3 0 C3 2.64 3 5.28 3 8 C3.66 8.33 4.32 8.66 5 9 C4.67 9.66 4.34 10.32 4 11 C3.01 10.67 2.02 10.34 1 10 C0.67 6.7 0.34 3.4 0 0 Z " fill="#343434" transform="translate(8,37)"/>
<path d="M0 0 C2.75 1.375 2.75 1.375 5 3 C4.67 3.66 4.34 4.32 4 5 C1.36 4.01 -1.28 3.02 -4 2 C-2.3125 0.8125 -2.3125 0.8125 0 0 Z " fill="#323232" transform="translate(59,53)"/>
</svg>
